<svg xmlns="http://www.w3.org/2000/svg" height="512pt" version="1.1" viewBox="0 0 512 512" width="512pt">
<g id="surface1">
<path d="M 512 256 C 512 397.386719 397.386719 512 256 512 C 114.613281 512 0 397.386719 0 256 C 0 114.613281 114.613281 0 256 0 C 397.386719 0 512 114.613281 512 256 Z M 512 256 " style=" stroke:none;fill-rule:nonzero;fill:rgb(98.039216%,36.470588%,5.882353%);fill-opacity:1;" />
<path d="M 361.378906 489.375 C 450.199219 449.203125 512 359.820312 512 256 C 512 252.300781 511.902344 248.621094 511.746094 244.960938 L 329.742188 62.957031 L 114.253906 240.882812 L 136.269531 262.898438 L 135.503906 263.5 Z M 361.378906 489.375 " style=" stroke:none;fill-rule:nonzero;fill:rgb(94.901961%,27.058824%,0%);fill-opacity:1;" />
<path d="M 179 344.332031 L 333 344.332031 L 256.332031 440.332031 Z M 179 344.332031 " style=" stroke:none;fill-rule:nonzero;fill:rgb(25.490196%,28.627451%,32.156863%);fill-opacity:1;" />
<path d="M 333 344.332031 L 256 344.332031 L 256 439.921875 L 256.332031 440.332031 Z M 333 344.332031 " style=" stroke:none;fill-rule:nonzero;fill:rgb(13.72549%,15.294118%,16.862745%);fill-opacity:1;" />
<path d="M 294.5 373.644531 L 294.5 348 L 217.5 348 L 217.5 373.644531 C 217.5 385.265625 210.230469 395.648438 199.3125 399.625 L 80.914062 442.742188 C 126.699219 485.6875 188.273438 512 256 512 C 323.726562 512 385.300781 485.6875 431.085938 442.742188 L 312.6875 399.625 C 301.769531 395.648438 294.5 385.265625 294.5 373.644531 Z M 294.5 373.644531 " style=" stroke:none;fill-rule:nonzero;fill:rgb(100%,74.509804%,66.666667%);fill-opacity:1;" />
<path d="M 431.085938 442.742188 L 312.6875 399.625 C 301.769531 395.648438 294.5 385.265625 294.5 373.644531 L 294.5 348 L 255.570312 348 L 255.570312 511.996094 C 255.714844 511.996094 255.855469 512 256 512 C 323.726562 512 385.300781 485.6875 431.085938 442.742188 Z M 431.085938 442.742188 " style=" stroke:none;fill-rule:nonzero;fill:rgb(98.039216%,65.098039%,55.686275%);fill-opacity:1;" />
<path d="M 386.402344 239.902344 C 386.402344 258.167969 371.597656 272.976562 353.332031 272.976562 C 335.070312 272.976562 320.261719 258.167969 320.261719 239.902344 C 320.261719 221.640625 335.070312 206.832031 353.332031 206.832031 C 371.597656 206.832031 386.402344 221.640625 386.402344 239.902344 Z M 386.402344 239.902344 " style=" stroke:none;fill-rule:nonzero;fill:rgb(100%,74.509804%,66.666667%);fill-opacity:1;" />
<path d="M 191.738281 239.902344 C 191.738281 258.167969 176.929688 272.976562 158.667969 272.976562 C 140.402344 272.976562 125.597656 258.167969 125.597656 239.902344 C 125.597656 221.640625 140.402344 206.832031 158.667969 206.832031 C 176.929688 206.832031 191.738281 221.640625 191.738281 239.902344 Z M 191.738281 239.902344 " style=" stroke:none;fill-rule:nonzero;fill:rgb(100%,74.509804%,66.666667%);fill-opacity:1;" />
<path d="M 300.03125 363.714844 L 277.949219 375.058594 C 264.171875 382.136719 247.828125 382.136719 234.050781 375.058594 L 211.96875 363.714844 C 179.242188 346.902344 158.667969 313.203125 158.667969 276.410156 L 158.667969 190.335938 C 158.667969 136.578125 202.242188 93 256 93 C 309.757812 93 353.332031 136.578125 353.332031 190.332031 L 353.332031 276.410156 C 353.332031 313.203125 332.757812 346.902344 300.03125 363.714844 Z M 300.03125 363.714844 " style=" stroke:none;fill-rule:nonzero;fill:rgb(100%,80.392157%,74.509804%);fill-opacity:1;" />
<path d="M 256 93 C 255.855469 93 255.714844 93.003906 256 93.003906 L 256 380.351562 C 263.242188 380.421875 270.929688 378.664062 277.949219 375.058594 L 300.03125 363.714844 C 332.757812 346.902344 353.332031 313.203125 353.332031 276.410156 L 353.332031 190.332031 C 353.332031 136.578125 309.757812 93 256 93 Z M 256 93 " style=" stroke:none;fill-rule:nonzero;fill:rgb(100%,74.509804%,66.666667%);fill-opacity:1;" />
<path d="M 148.5 257.5 C 148.5 268.546875 157.453125 277.5 168.5 277.5 L 168.5 224.332031 L 148.5 224.332031 Z M 148.5 257.5 " style=" stroke:none;fill-rule:nonzero;fill:rgb(100%,83.137255%,0%);fill-opacity:1;" />
<path d="M 343.5 224.332031 L 343.5 277.5 C 354.546875 277.5 363.5 268.546875 363.5 257.5 L 363.5 224.332031 Z M 343.5 224.332031 " style=" stroke:none;fill-rule:nonzero;fill:rgb(99.215686%,72.941176%,7.058824%);fill-opacity:1;" />
<path d="M 333 403 L 255.667969 440.332031 L 179 403 L 77.882812 439.851562 C 123.960938 484.503906 186.765625 512 256 512 C 324.3125 512 386.371094 485.238281 432.277344 441.632812 Z M 333 403 " style=" stroke:none;fill-rule:nonzero;fill:rgb(25.490196%,28.627451%,32.156863%);fill-opacity:1;" />
<path d="M 333 403 L 256 440.171875 L 256 512 C 324.3125 512 386.371094 485.238281 432.277344 441.632812 Z M 333 403 " style=" stroke:none;fill-rule:nonzero;fill:rgb(13.72549%,15.294118%,16.862745%);fill-opacity:1;" />
<path d="M 373.820312 215.902344 L 336.144531 73.113281 C 333.242188 62.105469 321.753906 55.738281 310.882812 59.105469 L 256 76.101562 L 201.117188 59.105469 C 190.246094 55.738281 178.757812 62.105469 175.851562 73.109375 L 138.175781 215.902344 Z M 373.820312 215.902344 " style=" stroke:none;fill-rule:nonzero;fill:rgb(33.333333%,35.294118%,40%);fill-opacity:1;" />
<path d="M 336.144531 73.113281 C 333.242188 62.105469 321.753906 55.738281 310.882812 59.105469 L 256 76.101562 L 256 215.902344 L 373.824219 215.902344 Z M 336.144531 73.113281 " style=" stroke:none;fill-rule:nonzero;fill:rgb(25.490196%,28.627451%,32.156863%);fill-opacity:1;" />
<path d="M 148.917969 175.195312 L 138.179688 215.902344 L 373.820312 215.902344 L 363.082031 175.195312 Z M 148.917969 175.195312 " style=" stroke:none;fill-rule:nonzero;fill:rgb(43.921569%,46.666667%,53.72549%);fill-opacity:1;" />
<path d="M 363.082031 175.195312 L 256 175.195312 L 256 215.902344 L 373.824219 215.902344 Z M 363.082031 175.195312 " style=" stroke:none;fill-rule:nonzero;fill:rgb(38.823529%,41.176471%,47.058824%);fill-opacity:1;" />
<path d="M 114.253906 210.457031 L 397.746094 210.457031 L 397.746094 240.882812 L 114.253906 240.882812 Z M 114.253906 210.457031 " style=" stroke:none;fill-rule:nonzero;fill:rgb(25.490196%,28.627451%,32.156863%);fill-opacity:1;" />
<path d="M 256 210.457031 L 397.746094 210.457031 L 397.746094 240.882812 L 256 240.882812 Z M 256 210.457031 " style=" stroke:none;fill-rule:nonzero;fill:rgb(13.72549%,15.294118%,16.862745%);fill-opacity:1;" />
<path d="M 333 403 L 333 344.332031 L 267.332031 385.667969 L 255.667969 440.332031 Z M 333 403 " style=" stroke:none;fill-rule:nonzero;fill:rgb(25.490196%,28.627451%,32.156863%);fill-opacity:1;" />
<path d="M 179 403 L 179 344.332031 L 244.667969 385.667969 L 256.332031 440.332031 Z M 179 403 " style=" stroke:none;fill-rule:nonzero;fill:rgb(33.333333%,35.294118%,40%);fill-opacity:1;" />
</g>
</svg>