<svg height="487pt" viewBox="0 -46 487.00003 487" width="487pt" xmlns="http://www.w3.org/2000/svg"><path d="m370 156.3125v200.6875c-.011719 20.429688-16.570312 36.988281-37 37h-296c-8.433594.011719-16.617188-2.871094-23.179688-8.167969-3.347656-2.691406-6.207031-5.945312-8.445312-9.609375-3.523438-5.792968-5.3828125-12.445312-5.375-19.222656v-200.550781l161.144531 136.449219c13.804688 11.691406 34.042969 11.683593 47.839844-.015626zm0 0" fill="#e48e66"/><path d="m370 156.144531v.167969l-161.015625 136.566406c-13.796875 11.703125-34.035156 11.710938-47.839844.019532l-161.144531-136.449219v-.304688c0-20.433593 16.566406-37 37-37h296c20.433594 0 37 16.566407 37 37zm0 0" fill="#f8ec7d"/><path d="m364.605469 376.25c-2.238281 3.664062-5.097657 6.914062-8.453125 9.597656-.410156-.25-.785156-.550781-1.117188-.898437l-92.59375-94.210938c-2.457031-2.558593-2.402344-6.617187.128906-9.101562 2.527344-2.488281 6.585938-2.480469 9.101563.019531l92.59375 94.210938c.121094.121093.234375.253906.339844.382812zm0 0" fill="#af593c"/><path d="m107.042969 290.722656-92.085938 94.183594c-.339843.351562-.722656.664062-1.136719.925781-3.347656-2.691406-6.207031-5.945312-8.445312-9.609375.097656-.128906.210938-.242187.324219-.363281l92.082031-94.183594c1.609375-1.683593 4-2.375 6.261719-1.804687 2.257812.566406 4.039062 2.308594 4.660156 4.554687.621094 2.242188-.015625 4.648438-1.660156 6.296875zm0 0" fill="#af593c"/><g fill="#6fe3ff"><path d="m367 0c66.273438 0 120 53.726562 120 120s-53.726562 120-120 120-120-53.726562-120-120v-.429688c.238281-66.105468 53.894531-119.570312 120-119.570312zm0 0"/><path d="m442.738281 170.179688v.011718c0 11.050782-8.957031 20.007813-20.007812 20.007813h-111.460938c-11.050781 0-20.007812-8.957031-20.007812-20.007813v-.011718c0-10.566407 8.21875-19.3125 18.769531-19.96875.410156-.03125.820312-.039063 1.238281-.039063h111.460938c.417969 0 .828125.007813 1.238281.039063 10.550781.65625 18.769531 9.402343 18.769531 19.96875zm0 0"/><path d="m423.96875 150.171875v.039063c-.410156-.03125-.820312-.039063-1.238281-.039063h-111.460938c-.417969 0-.828125.007813-1.238281.039063v-34.621094c0-31.941406 25.507812-57.679688 56.96875-57.679688 15.144531-.011718 29.660156 6.0625 40.28125 16.859375 10.734375 10.871094 16.734375 25.542969 16.6875 40.820313zm0 0"/><path d="m341.019531 190.199219h51.960938c0 14.347656-11.632813 25.980469-25.980469 25.980469s-25.980469-11.632813-25.980469-25.980469zm0 0"/><path d="m383.679688 40.511719c.023437 7.980469-5.59375 14.867187-13.414063 16.445312-7.824219 1.582031-15.675781-2.582031-18.75-9.945312-3.078125-7.363281-.527344-15.875 6.09375-20.332031 6.621094-4.457032 15.46875-3.613282 21.128906 2.011718 3.160157 3.121094 4.941407 7.375 4.941407 11.820313zm0 0"/></g><path d="m430.96875 144.445312v-28.855468c.070312-17.125-6.660156-33.574219-18.710938-45.742188-7.171874-7.285156-15.996093-12.730468-25.726562-15.875 6.828125-9.867187 5.207031-23.277344-3.773438-31.234375-8.976562-7.957031-22.484374-7.957031-31.460937.003907-8.976563 7.964843-10.59375 21.375-3.765625 31.238281-26.597656 8.746093-44.558594 33.609375-44.5 61.609375v28.867187c-12.671875 4.0625-20.5 16.75-18.445312 29.898438 2.054687 13.148437 13.375 22.839843 26.683593 22.84375h23.492188c3.261719 15.1875 16.703125 26.023437 32.238281 25.980469 15.507812-.019532 28.914062-10.828126 32.226562-25.980469h23.5c13.308594-.003907 24.632813-9.703125 26.6875-22.851563 2.050782-13.152344-5.773437-25.839844-18.449218-29.902344zm-70.832031-110.746093c3.257812-3.273438 8.375-3.789063 12.21875-1.226563 3.84375 2.558594 5.34375 7.480469 3.578125 11.75-1.765625 4.265625-6.304688 6.691406-10.832032 5.789063-4.53125-.90625-7.789062-4.886719-7.78125-9.503907 0-2.554687 1.011719-5.003906 2.816407-6.808593zm6.863281 31.210937c13.277344-.027344 26.003906 5.300782 35.300781 14.78125 9.449219 9.550782 14.726563 22.460938 14.667969 35.898438v27.582031h-99.9375v-27.582031c0-27.945313 22.414062-50.679688 49.96875-50.679688zm0 144.269532c-7.796875.042968-14.816406-4.71875-17.65625-11.980469h35.28125c-2.871094 7.222656-9.851562 11.96875-17.625 11.980469zm55.730469-25.980469h-111.460938c-7.011719-.019531-12.75-5.597657-12.96875-12.605469-.21875-7.011719 5.15625-12.933594 12.15625-13.394531l.078125-.003907c.242188-.019531.484375-.023437.734375-.023437h111.460938c.25 0 .492187 0 .8125.027344 7 .460937 12.375 6.382812 12.15625 13.394531-.21875 7.007812-5.957031 12.585938-12.96875 12.605469zm0 0" fill="#2561a1"/></svg>